<svg width="80" height="80" viewBox="0 0 80 80" fill="none" xmlns="http://www.w3.org/2000/svg">
<path d="M68.6759 64.6703V75M61.8728 55.8896H69.3271C73.0121 55.8896 76 58.8803 76 62.5613V75M11.3241 64.6626V74.9923M18.1272 55.8819H10.6729C6.98787 55.8819 4 58.8727 4 62.5537V74.9923M47.914 59.6549V75M32.0783 75V59.6549M24.1337 71.5337V57.2623C24.1337 53.0752 27.5276 49.6856 31.7106 49.6856H48.2741C52.4571 49.6856 55.851 53.0752 55.851 57.2623V71.5337M15.4458 13.2899L18.4261 19.3635L25.1219 20.3221L20.2647 25.0383L21.4215 31.7101L15.4382 28.5506L9.4548 31.7101L10.6116 25.0383L5.75442 20.3221L12.4503 19.3635L15.4306 13.2899H15.4458ZM64.5541 13.2899L67.5344 19.3635L74.2302 20.3221L69.373 25.0383L70.5299 31.7101L64.5465 28.5506L58.5631 31.7101L59.72 25.0383L54.8628 20.3221L61.5663 19.3635L64.5465 13.2899H64.5541ZM40.0383 5L43.0185 11.0736L49.7144 12.0322L44.8572 16.7484L46.014 23.4202L40.0307 20.2608L34.0472 23.4202L35.2041 16.7484L30.3469 12.0322L37.0427 11.0736L40.023 5H40.0383ZM69.036 43.5199C69.036 46.8482 66.3392 49.5476 63.0143 49.5476C59.6893 49.5476 56.9925 46.8482 56.9925 43.5199C56.9925 40.1917 59.6893 37.4923 63.0143 37.4923C66.3392 37.4923 69.036 40.1917 69.036 43.5199ZM10.964 43.5122C10.964 46.8405 13.6608 49.5399 16.9934 49.5399C20.326 49.5399 23.0151 46.8405 23.0151 43.5122C23.0151 40.184 20.3183 37.4846 16.9934 37.4846C13.6684 37.4846 10.964 40.184 10.964 43.5122ZM46.8414 36.8558C46.8414 40.6365 43.777 43.6963 40 43.6963C36.223 43.6963 33.1586 40.6365 33.1586 36.8558C33.1586 33.0751 36.223 30.0153 40 30.0153C43.777 30.0153 46.8414 33.0751 46.8414 36.8558Z" stroke="white" stroke-width="2" stroke-miterlimit="10"/>
</svg>
