<svg width="80" height="80" viewBox="0 0 80 80" fill="none" xmlns="http://www.w3.org/2000/svg">
<path d="M24.8469 7.44448C24.8469 7.44448 31.232 13.0069 29.8952 15.8588C28.5584 18.719 26.8978 17.7545 24.8469 16.5655C22.7961 15.3765 22.4971 14.0462 20.1889 15.3765C17.8806 16.7152 13.8204 16.1664 13.8204 16.1664M8.87182 26.3767C8.87182 26.3767 16.4359 26.6012 18.8438 25.2043C21.2517 23.8075 26.4577 26.7259 25.5112 32.0638C24.5563 37.4018 20.4463 34.3919 17.2496 37.593C14.0529 40.7941 18.9268 44.3029 17.2496 45.9824C15.5724 47.6619 14.5262 49.3498 16.1204 53.2909C11.097 48.1691 8 41.1516 8 33.4025C8 17.7129 20.6954 5 36.3632 5C52.0311 5 64.7348 17.7129 64.7265 33.4025C64.7265 39.3141 62.9248 44.7934 59.8443 49.3414M43.5703 5.92292C43.5703 5.92292 38.8376 12.8157 40.3654 16.2413C41.8848 19.6752 44.9735 19.0349 46.0779 19.6752C47.1821 20.3154 53.9492 20.939 51.8651 23.0259C49.781 25.1129 46.1692 25.3041 43.7862 27.6821C41.4032 30.0684 42.4245 33.4025 40.0581 33.4025C37.6917 33.4025 36.0394 28.8628 33.7727 31.1326C31.506 33.4025 35.0348 39.1228 37.891 41.9831C40.7473 44.8433 38.2148 46.6059 39.5018 47.8947C40.2574 48.6514 41.2205 49.383 41.8765 50.3558M49.0919 47.5871C48.8677 44.8932 48.6601 42.4404 49.6897 41.4094C51.4997 39.5968 54.8293 35.0654 53.4925 30.8998C52.164 26.7342 61.4136 20.0742 61.4136 20.0742M63.5558 57.5562C63.5558 57.5562 58.1837 51.4201 53.368 51.4201C48.5521 51.4201 45.1147 53.6401 41.3368 54.1972C39.5766 54.4549 36.9694 54.5963 34.686 54.6711C32.0207 54.7542 29.9118 56.941 29.9118 59.6182C29.9118 60.1254 30.3186 60.5328 30.8251 60.5328H47.4396M58.4494 69.7536C58.4494 69.7536 39.0036 69.8617 35.342 70.9759C32.2782 71.907 16.4774 64.5986 11.396 62.1791C10.5656 61.7883 10.3083 60.7407 10.8396 60.0007C12.3923 57.8306 15.2153 56.9908 17.698 57.9636L29.0067 62.3703C30.0197 62.7694 31.1323 62.7944 32.1619 62.4618L38.1152 60.5328M64.5355 75L57.4945 72.0153L64.959 54.3468L72 57.3318L64.5355 75Z" stroke="white" stroke-width="1.7439" stroke-linecap="round" stroke-linejoin="round"/>
</svg>
