<svg width="80" height="80" viewBox="0 0 80 80" fill="none" xmlns="http://www.w3.org/2000/svg">
<path d="M27.2909 28.5976L31.4185 36.6647M52.7445 28.5976L48.6168 36.6647M40.0208 25.328V34.3823M24.6149 58.7658L19.6037 55.0499M27.7264 41.984C27.7264 41.984 31.1724 45.3039 36.9346 42.9146M7 49.0388L16.5932 54.9115L18.8275 56.2885L28.3638 40.9403L16.7131 33.7535M60.3496 54.8235L57.1308 56.6092M45.5748 67.0278C46.875 67.8704 47.1779 69.6372 46.2375 70.8633C45.3728 71.9888 43.7824 72.2403 42.6148 71.4418L41.422 70.6244M52.7318 59.5455L53.6596 60.1365C54.8398 60.8848 56.4051 60.5453 57.156 59.3694C57.9071 58.1936 57.5663 56.6343 56.3861 55.8861L41.2326 46.2345L35.9564 52.4404C35.0223 53.5345 33.3687 53.654 32.2895 52.7045C31.267 51.8054 31.1282 50.2712 31.9676 49.2023L37.389 42.3173C38.159 41.3427 39.4655 40.9592 40.6394 41.3742L41.8575 41.8017C45.3224 43.0215 49.0586 43.2479 52.6498 42.4619M45.6569 55.0561L52.7192 59.5581C53.8995 60.3063 54.2402 61.8719 53.4892 63.0415C52.7382 64.2172 51.1667 64.5568 49.9927 63.8085L49.0524 63.2112M49.0524 63.2112L42.8609 59.2689M49.0524 63.2112C50.2326 63.9594 50.5733 65.525 49.8224 66.6946C49.0713 67.8704 47.4998 68.2099 46.3259 67.4617L40.2291 63.5822M73.0227 49.02L63.4864 54.9178L61.2522 56.2947L51.7157 40.9466L63.3664 33.7597M21.232 11.3128L23.5105 15.9342L28.6289 16.6636L24.9179 20.2476L25.8014 25.3217L21.232 22.9136L16.6626 25.3217L17.5462 20.2476L13.8352 16.6636L18.9536 15.9342L21.232 11.3128ZM58.7466 11.3128L61.0249 15.9342L66.1434 16.6636L62.4324 20.2476L63.316 25.3217L58.7466 22.9136L54.1772 25.3217L55.0607 20.2476L51.3496 16.6636L56.4681 15.9342L58.7466 11.3128ZM40.0146 5L42.2929 9.62143L47.4114 10.3508L43.7004 13.9348L44.5839 19.0089L40.0146 16.6008L35.4451 19.0089L36.3287 13.9348L32.6176 10.3508L37.7361 9.62143L40.0146 5ZM40.8098 72.3032L39.3581 74.0448C38.424 75.1703 36.7516 75.3212 35.6282 74.3907C34.4984 73.4601 34.3469 71.7939 35.281 70.6747L36.7327 68.933C37.6667 67.8138 39.3392 67.6566 40.4626 68.5871C41.5861 69.5177 41.7438 71.184 40.8098 72.3032ZM36.5748 69.1216L35.1232 70.8633C34.1892 71.9825 32.5167 72.1397 31.3933 71.2091C30.2698 70.2785 30.1121 68.6124 31.0461 67.4931L32.4977 65.7514C33.4318 64.6322 35.1043 64.475 36.2277 65.4056C37.3511 66.3362 37.5089 68.0024 36.5748 69.1216ZM32.5735 65.6634L31.002 67.5497C30.131 68.5934 28.5847 68.738 27.5371 67.8704C26.3316 66.8706 26.1612 65.0912 27.1647 63.8903L28.4964 62.2932C29.4305 61.174 31.1029 61.0168 32.2263 61.9474C33.3561 62.8779 33.5076 64.5442 32.5735 65.6634ZM28.3386 62.4819L26.887 64.2235C25.9529 65.3427 24.2804 65.4999 23.157 64.5694C22.0335 63.6388 21.8758 61.9725 22.8098 60.8533L24.2614 59.1117C25.1955 57.9925 26.8681 57.8352 27.9915 58.7658C29.1148 59.6964 29.2727 61.3627 28.3386 62.4819Z" stroke="white" stroke-width="1.35994" stroke-miterlimit="10"/>
</svg>
