<svg width="80" height="80" viewBox="0 0 80 80" fill="none" xmlns="http://www.w3.org/2000/svg">
<path d="M64.2228 40.8425H15.4524C15.1032 40.8425 14.8203 40.5704 14.8203 40.2259C14.8203 39.8814 15.1032 39.6094 15.4524 39.6094H64.2228C64.572 39.6094 64.8549 39.8814 64.8549 40.2259C64.8549 40.5704 64.572 40.8425 64.2228 40.8425Z" fill="white"/>
<path d="M39.8381 64.4576C39.489 64.4576 39.2061 64.1855 39.2061 63.8411V16.6009C39.2061 16.2624 39.489 15.9844 39.8381 15.9844C40.1873 15.9844 40.4702 16.2624 40.4702 16.6009V63.8411C40.4702 64.1795 40.1873 64.4576 39.8381 64.4576Z" fill="white"/>
<path d="M36.6286 64.1967C36.46 64.1967 36.2914 64.1302 36.165 64.0033C23.6624 51.1097 23.6624 29.3303 36.165 16.4367C36.4058 16.1889 36.8031 16.1768 37.0619 16.4065C37.3148 16.6362 37.3268 17.0291 37.0921 17.2769C25.0289 29.7111 25.0289 50.7228 37.0921 63.157C37.3329 63.4048 37.3208 63.7917 37.0619 64.0274C36.9416 64.1363 36.7851 64.1906 36.6286 64.1906" fill="white"/>
<path d="M43.0395 64.1984C42.883 64.1984 42.7265 64.1441 42.6061 64.0352C42.3472 63.8055 42.3412 63.4126 42.576 63.1648C54.6392 50.7306 54.6392 29.7189 42.576 17.2848C42.3352 17.0369 42.3472 16.6501 42.6061 16.4143C42.8649 16.1846 43.2622 16.1967 43.503 16.4446C56.0056 29.3381 56.0056 51.1175 43.503 64.0111C43.3766 64.138 43.208 64.2045 43.0395 64.2045" fill="white"/>
<path d="M39.8368 24.0895C35.5147 24.0895 31.1927 23.1888 27.0753 21.3814C26.7563 21.2424 26.6118 20.8797 26.7563 20.5714C26.9007 20.2632 27.28 20.1242 27.599 20.2632C35.4967 23.7268 44.1949 23.7208 52.0926 20.2571C52.4117 20.1181 52.7849 20.2571 52.9293 20.5654C53.0738 20.8736 52.9293 21.2364 52.6163 21.3814C48.4929 23.1888 44.1649 24.0956 39.8368 24.0956" fill="white"/>
<path d="M52.3514 60.2361C52.2612 60.2361 52.1769 60.218 52.0926 60.1817C44.1949 56.712 35.4967 56.712 27.599 60.1757C27.28 60.3147 26.9007 60.1757 26.7563 59.8674C26.6118 59.5591 26.7563 59.1964 27.0753 59.0574C35.3101 55.4486 44.3816 55.4486 52.6163 59.0634C52.9354 59.2025 53.0798 59.5651 52.9293 59.8795C52.8209 60.1092 52.5922 60.2422 52.3514 60.2422" fill="white"/>
<path d="M13.6107 47.4944C13.3278 47.4944 13.0689 47.313 12.9967 47.0349C12.4008 44.8225 12.0938 42.5316 12.0938 40.2225C12.0998 25.4127 24.5422 13.3594 39.8379 13.3594C47.2841 13.3594 54.2727 16.1763 59.5218 21.2962C59.7686 21.538 59.7686 21.9249 59.5218 22.1667C59.275 22.4024 58.8717 22.4024 58.6249 22.1667C53.6166 17.2825 46.947 14.5925 39.8439 14.5925C25.2405 14.5925 13.3699 26.0897 13.3699 40.2225C13.3699 42.4288 13.6588 44.617 14.2307 46.7267C14.321 47.0531 14.1163 47.3916 13.7792 47.4762C13.7251 47.4883 13.6709 47.4944 13.6167 47.4944" fill="white"/>
<path d="M39.8373 67.0783C32.1203 67.0783 24.951 64.0801 19.6538 58.6458C19.413 58.398 19.4251 58.0111 19.6778 57.7753C19.9307 57.5456 20.334 57.5517 20.5748 57.7995C25.6312 62.992 32.4694 65.8512 39.8373 65.8512C54.4348 65.8512 66.3053 54.354 66.3053 40.2212C66.3053 37.0054 65.6973 33.8621 64.4995 30.8941C64.3731 30.5798 64.5356 30.2232 64.8606 30.0962C65.1857 29.9753 65.5529 30.1265 65.6793 30.4468C66.9374 33.5599 67.5754 36.8483 67.5754 40.2212C67.5754 55.031 55.133 67.0783 39.8373 67.0783Z" fill="white"/>
<path d="M19.9368 28.0446C19.7742 28.0446 19.6117 27.9841 19.4853 27.8633L10.1851 18.8565C9.9383 18.6147 9.9383 18.2279 10.1851 17.986C10.4319 17.7442 10.8352 17.7442 11.082 17.986L20.3822 26.9928C20.6291 27.2346 20.6291 27.6215 20.3822 27.8633C20.2558 27.9841 20.0933 28.0446 19.9308 28.0446" fill="white"/>
<path d="M11.5275 18.4221L14.2664 21.0758L18.9797 16.5119L17.1136 16.1493C16.8608 16.1009 16.6681 15.9135 16.614 15.6656L16.2408 13.8582L11.5275 18.4221ZM14.2664 22.5567C14.0978 22.5567 13.9353 22.4902 13.8149 22.3754L10.1851 18.8573C9.9383 18.6155 9.9383 18.2287 10.1851 17.9869L16.1866 12.1778C16.3551 12.0206 16.5959 11.9602 16.8186 12.0267C17.0413 12.0932 17.2099 12.2746 17.2581 12.4921L17.7818 15.0249L20.3943 15.5327C20.623 15.575 20.8096 15.7382 20.8758 15.9558C20.9421 16.1734 20.8818 16.4092 20.7193 16.5663L14.7178 22.3754C14.5975 22.4902 14.4349 22.5567 14.2724 22.5567" fill="white"/>
<path d="M70.0794 61.3571C69.9168 61.3571 69.7543 61.2966 69.6279 61.1758L60.3277 52.169C60.0809 51.9272 60.0809 51.5404 60.3277 51.2986C60.5745 51.0567 60.9778 51.0567 61.2246 51.2986L70.5248 60.3053C70.7716 60.5471 70.7716 60.934 70.5248 61.1758C70.3984 61.2966 70.2359 61.3571 70.0794 61.3571Z" fill="white"/>
<path d="M61.7303 62.6608L63.5963 63.0234C63.8491 63.0717 64.0418 63.2592 64.0959 63.507L64.4691 65.3144L69.1825 60.7506L66.4435 58.0969L61.7303 62.6608ZM64.0779 67.1702C64.0176 67.1702 63.9514 67.1641 63.8913 67.146C63.6686 67.0795 63.5 66.8981 63.4519 66.6805L62.9282 64.1477L60.3156 63.64C60.0869 63.5977 59.9003 63.4345 59.8341 63.2169C59.7679 62.9992 59.8281 62.7635 59.9906 62.6063L65.9921 56.7973C66.2329 56.5676 66.6482 56.5676 66.889 56.7973L70.5248 60.3154C70.7716 60.5571 70.7716 60.944 70.5248 61.1858L64.5234 66.9948C64.4029 67.1097 64.2404 67.1762 64.0719 67.1762" fill="white"/>
<path d="M14.1152 58.1614C13.8564 58.1614 13.6156 58.0042 13.5193 57.7564C13.3989 57.436 13.5675 57.0854 13.8985 56.9706L25.2936 52.9508C25.6246 52.8359 25.9858 52.9991 26.1062 53.3195C26.2266 53.6399 26.058 53.9905 25.727 54.1053L14.332 58.1191C14.2597 58.1433 14.1875 58.1553 14.1152 58.1553" fill="white"/>
<path d="M12.2141 50.695L14.4955 56.7639L18.1313 55.4824L15.8499 49.4134L14.7242 50.9004C14.5737 51.0999 14.3089 51.1906 14.0621 51.1362L12.2141 50.701V50.695ZM14.1163 58.1603C13.8575 58.1603 13.6167 58.0031 13.5203 57.7553L10.6189 50.03C10.5407 49.8185 10.5888 49.5766 10.7453 49.4134C10.9018 49.2442 11.1426 49.1716 11.3653 49.226L13.9538 49.8365L15.5309 47.7571C15.6693 47.5758 15.8981 47.4791 16.1329 47.5154C16.3676 47.5456 16.5602 47.7028 16.6385 47.9144L19.5399 55.6335C19.6001 55.7847 19.5881 55.9539 19.5219 56.105C19.4496 56.2501 19.3232 56.3649 19.1607 56.4194L14.333 58.124C14.2607 58.1482 14.1885 58.1603 14.1163 58.1603Z" fill="white"/>
<path d="M26.2998 74.9952C26.2276 74.9952 26.1554 74.9831 26.0831 74.9588C25.752 74.8438 25.5835 74.4938 25.7039 74.1731L28.4308 66.9133C28.5511 66.5929 28.9123 66.4297 29.2434 66.5445C29.5745 66.6594 29.7431 67.0161 29.6226 67.3304L26.8957 74.5903C26.7995 74.8381 26.5587 74.9952 26.2998 74.9952Z" fill="white"/>
<path d="M19.6601 71.39L25.9264 73.5967L27.2507 70.0723L20.9843 67.866L21.4358 69.6552C21.496 69.897 21.3997 70.1508 21.195 70.296L19.6601 71.384V71.39ZM26.3056 74.9988C26.2334 74.9988 26.1612 74.9867 26.0889 74.9624L18.113 72.1517C17.8903 72.0731 17.7337 71.8857 17.7037 71.6621C17.6736 71.4384 17.7699 71.2147 17.9565 71.0818L20.1055 69.5524L19.4734 67.0438C19.4193 66.8263 19.4915 66.5905 19.6661 66.4394C19.8406 66.2883 20.0874 66.2399 20.3041 66.3185L28.2801 69.1293C28.4366 69.1837 28.569 69.2986 28.6352 69.4436C28.7074 69.5887 28.7134 69.758 28.6593 69.9151L26.9016 74.5938C26.8052 74.8417 26.5644 74.9988 26.3056 74.9988Z" fill="white"/>
<path d="M50.7022 13.9467C50.6299 13.9467 50.5577 13.9347 50.4855 13.9105C50.1544 13.7957 49.9859 13.439 50.1062 13.1247L53.0077 5.40546C53.1281 5.08508 53.4892 4.92187 53.8203 5.03672C54.1514 5.15157 54.3199 5.50217 54.1996 5.82254L51.2981 13.5357C51.2018 13.7835 50.9611 13.9407 50.7022 13.9407" fill="white"/>
<path d="M52.6596 9.92694L58.9259 12.1333L58.4745 10.3441C58.4143 10.1023 58.5106 9.84837 58.7153 9.7033L60.2502 8.61525L53.9839 6.40889L52.6596 9.93301V9.92694ZM59.8228 13.7171C59.7506 13.7171 59.6784 13.7049 59.6061 13.6808L51.6302 10.8699C51.4737 10.8156 51.3413 10.7007 51.269 10.5556C51.1968 10.4106 51.1908 10.2413 51.251 10.0841L53.0087 5.40546C53.1291 5.08508 53.4903 4.92187 53.8214 5.03672L61.7973 7.84755C62.02 7.92611 62.1765 8.11354 62.2066 8.33718C62.2367 8.56082 62.1404 8.78453 61.9538 8.91745L59.8048 10.4468L60.4187 12.8889C60.4429 12.9554 60.4549 13.028 60.4549 13.1005C60.4549 13.439 60.172 13.7171 59.8228 13.7171Z" fill="white"/>
<path d="M58.7389 33.7174C58.6847 33.7174 58.6305 33.7114 58.5763 33.6993C58.2392 33.6086 58.0345 33.2762 58.1249 32.9497L61.2129 21.791C61.3032 21.4646 61.6523 21.2712 61.9894 21.3558C62.3265 21.4404 62.5312 21.7789 62.4409 22.1054L59.3529 33.2641C59.2746 33.5361 59.0218 33.7174 58.7389 33.7174Z" fill="white"/>
<path d="M61.2733 26.3186L67.7142 27.993L67.1002 26.2461C67.016 26.0103 67.0882 25.7504 67.2808 25.5872L68.7135 24.3722L62.2726 22.7038L61.2673 26.3246L61.2733 26.3186ZM68.6954 29.4921C68.6412 29.4921 68.587 29.4861 68.5329 29.474L60.3342 27.3462C60.1717 27.3039 60.0333 27.2011 59.949 27.0621C59.8648 26.9231 59.8406 26.7538 59.8888 26.5966L61.2191 21.791C61.3094 21.4646 61.6586 21.2712 61.9956 21.3558L70.1943 23.4836C70.423 23.5441 70.5976 23.7193 70.6457 23.937C70.6999 24.1606 70.6216 24.3903 70.4471 24.5414L68.4426 26.2461L69.2793 28.6338C69.3154 28.7123 69.3395 28.797 69.3395 28.8937C69.3395 29.2322 69.0566 29.5102 68.7075 29.5102L68.6954 29.4921Z" fill="white"/>
</svg>
